ffmpeg version 3.4.8-0ubuntu0.2 Copyright (c) 2000-2020 the FFmpeg developers
  built with gcc 7 (Ubuntu 7.5.0-3ubuntu1~18.04)
  configuration: --prefix=/usr --extra-version=0ubuntu0.2 --toolchain=hardened --libdir=/usr/lib/x86_64-linux-gnu --incdir=/usr/include/x86_64-linux-gnu --enable-gpl --disable-stripping --enable-avresample --enable-avisynth --enable-gnutls --enable-ladspa --enable-libass --enable-libbluray --enable-libbs2b --enable-libcaca --enable-libcdio --enable-libflite --enable-libfontconfig --enable-libfreetype --enable-libfribidi --enable-libgme --enable-libgsm --enable-libmp3lame --enable-libmysofa --enable-libopenjpeg --enable-libopenmpt --enable-libopus --enable-libpulse --enable-librubberband --enable-librsvg --enable-libshine --enable-libsnappy --enable-libsoxr --enable-libspeex --enable-libssh --enable-libtheora --enable-libtwolame --enable-libvorbis --enable-libvpx --enable-libwavpack --enable-libwebp --enable-libx265 --enable-libxml2 --enable-libxvid --enable-libzmq --enable-libzvbi --enable-omx --enable-openal --enable-opengl --enable-sdl2 --enable-libdc1394 --enable-libdrm --enable-libiec61883 --enable-chromaprint --enable-frei0r --enable-libopencv --enable-libx264 --enable-shared
  libavutil      55. 78.100 / 55. 78.100
  libavcodec     57.107.100 / 57.107.100
  libavformat    57. 83.100 / 57. 83.100
  libavdevice    57. 10.100 / 57. 10.100
  libavfilter     6.107.100 /  6.107.100
  libavresample   3.  7.  0 /  3.  7.  0
  libswscale      4.  8.100 /  4.  8.100
  libswresample   2.  9.100 /  2.  9.100
  libpostproc    54.  7.100 / 54.  7.100
[rawvideo @ 0x5565b9ff4a20] Estimating duration from bitrate, this may be inaccurate
Input #0, rawvideo, from '../../SVC-Encoder-20220109T061506Z-001/SVC-Encoder/Dataset/RollerCoaster/ERP_8x8/tile_yuv/Tile_33_480x240.yuv':
  Duration: 00:00:10.00, start: 0.000000, bitrate: 41472 kb/s
    Stream #0:0: Video: rawvideo (I420 / 0x30323449), yuv420p, 480x240, 41472 kb/s, 30 tbr, 30 tbn, 30 tbc
Stream mapping:
  Stream #0:0 -> #0:0 (rawvideo (native) -> h264 (libx264))
Press [q] to stop, [?] for help
[libx264 @ 0x5565ba001c60] using cpu capabilities: MMX2 SSE2Fast LZCNT SSSE3 SSE4.2 AVX
[libx264 @ 0x5565ba001c60] profile High, level 2.1
Output #0, rawvideo, to 'RollerCoaster_Tile_33_480x240_x264_QP_36.h264':
  Metadata:
    encoder         : Lavf57.83.100
    Stream #0:0: Video: h264 (libx264), yuv420p, 480x240, q=-1--1, 30 fps, 30 tbn, 30 tbc
    Metadata:
      encoder         : Lavc57.107.100 libx264
    Side data:
      cpb: bitrate max/min/avg: 0/0/0 buffer size: 0 vbv_delay: -1
frame=  176 fps=0.0 q=42.0 PSNR=Y:nan U:nan V:nan *:nan size=      51kB time=00:00:04.43 bitrate=  93.3kbits/s speed=8.83x    frame=  300 fps=0.0 q=42.0 LPSNR=Y:inf U:inf V:inf *:inf size=     108kB time=00:00:09.93 bitrate=  88.7kbits/s speed=10.6x    
video:108kB audio:0kB subtitle:0kB other streams:0kB global headers:0kB muxing overhead: 0.000000%
[libx264 @ 0x5565ba001c60] frame I:2     Avg QP:33.53  size:  8298  PSNR Mean Y:33.02 U:42.07 V:44.70 Avg:34.57 Global:34.50
[libx264 @ 0x5565ba001c60] frame P:76    Avg QP:35.51  size:   855  PSNR Mean Y:31.37 U:42.48 V:44.55 Avg:33.00 Global:32.98
[libx264 @ 0x5565ba001c60] frame B:222   Avg QP:41.53  size:   129  PSNR Mean Y:31.26 U:42.38 V:44.49 Avg:32.89 Global:32.87
[libx264 @ 0x5565ba001c60] consecutive B-frames:  1.3%  0.0%  0.0% 98.7%
[libx264 @ 0x5565ba001c60] mb I  I16..4:  9.2% 69.8% 21.0%
[libx264 @ 0x5565ba001c60] mb P  I16..4:  0.1%  0.0%  0.0%  P16..4: 41.9% 11.2%  2.4%  0.0%  0.0%    skip:44.5%
[libx264 @ 0x5565ba001c60] mb B  I16..4:  0.0%  0.0%  0.0%  B16..8: 23.7%  0.1%  0.0%  direct: 0.0%  skip:76.2%  L0:26.6% L1:73.3% BI: 0.1%
[libx264 @ 0x5565ba001c60] 8x8 transform intra:68.5% inter:72.5%
[libx264 @ 0x5565ba001c60] coded y,uvDC,uvAC intra: 83.5% 61.8% 6.8% inter: 3.2% 1.1% 0.0%
[libx264 @ 0x5565ba001c60] i16 v,h,dc,p: 17% 20% 46% 17%
[libx264 @ 0x5565ba001c60] i8 v,h,dc,ddl,ddr,vr,hd,vl,hu:  6% 12% 19%  7% 12%  6% 17% 15%  8%
[libx264 @ 0x5565ba001c60] i4 v,h,dc,ddl,ddr,vr,hd,vl,hu:  7% 10% 12%  8% 16%  5% 26% 12%  4%
[libx264 @ 0x5565ba001c60] i8c dc,h,v,p: 61% 17% 14%  8%
[libx264 @ 0x5565ba001c60] Weighted P-Frames: Y:1.3% UV:0.0%
[libx264 @ 0x5565ba001c60] ref P L0: 66.5% 16.2% 14.5%  2.7%  0.1%
[libx264 @ 0x5565ba001c60] ref B L0: 91.9%  7.7%  0.5%
[libx264 @ 0x5565ba001c60] ref B L1: 86.9% 13.1%
[libx264 @ 0x5565ba001c60] PSNR Mean Y:31.303 U:42.400 V:44.509 Avg:32.929 Global:32.909 kb/s:88.15
